<?xml version="1.0" encoding="utf-8"?>
<!-- Generator: Adobe Illustrator 25.3.0, SVG Export Plug-In . SVG Version: 6.00 Build 0)  -->
<svg version="1.1" id="Capa_1" xmlns="http://www.w3.org/2000/svg" xmlns:xlink="http://www.w3.org/1999/xlink" x="0px" y="0px"
	 viewBox="0 0 839.8 523.4" style="enable-background:new 0 0 839.8 523.4;" xml:space="preserve">
<style type="text/css">
	.st0{fill:#F0F0F0;}
	.st1{fill:#FFB6B6;}
	.st2{fill:#2F2E41;}
	.st3{fill:#E4E4E4;}
	.st4{fill:#3F3D56;}
	.st5{fill:#6C63FF;}
	.st6{fill:#CACACA;}
</style>
<path class="st0" d="M79.2,506.8c3.7,5,8.3,9.3,13.6,12.6c1.1,0.7,2.3,1.4,3.4,2h27.5c-0.3-0.7-0.6-1.3-1-2
	c-17.5-36.9-9.5-80.9,19.8-109.3c-16.6,5.1-32,15.2-42.1,29.4c-4.9,6.9-8.4,14.7-10.2,23c-1.7-16.5,1-33.2,7.7-48.4
	c-13.5,11-24,26-28,43C66,474,68.9,492.8,79.2,506.8z"/>
<path class="st1" d="M319.9,186.2c-6.2-0.4-11.5,4.2-12,10.3c0,0.7,0,1.3,0,2l-36,16.9l17.6,10.8l31.5-17.7c6.1-1.1,10.2-6.9,9.2-13
	C329.4,190.4,325.1,186.6,319.9,186.2z"/>
<polygon class="st1" points="171,510.8 183.5,510.8 189.4,462.8 171,462.8 "/>
<path class="st2" d="M167.9,506.7l24.5,0h0c8.6,0,15.6,7,15.6,15.6v0.5l-40.1,0L167.9,506.7z"/>
<polygon class="st1" points="234.5,510.8 246.9,510.8 252.8,462.8 234.5,462.8 "/>
<path class="st2" d="M231.3,506.7l24.5,0h0c8.6,0,15.6,7,15.6,15.6v0.5l-40.1,0L231.3,506.7z"/>
<polygon class="st2" points="242.8,262.2 249.1,275.7 260.4,397.2 251.6,501.6 230.9,501.6 206.5,337 195.1,497.8 167.2,496.6 
	161.8,278.7 "/>
<path class="st3" d="M142.2,150.1l26.1-10.6l36.9,2.1l32.8,12l10.9,122.3c-28.5,15.6-57.5,19.8-86.9,8.7l-27.3-79.6L142.2,150.1z"/>
<path class="st3" d="M227.9,156.7l11.6-3.2c0,0,8.8-5.7,11.7,11.3s17.7,43.4,17.7,43.4l25.4-13.6l11.8,25.7L266,244.6L223.7,202
	L227.9,156.7z"/>
<path id="a80a6b0c-a21b-4eb6-b764-70793a425e46-75" class="st1" d="M164.3,116.8L164.3,116.8c-5.9-13.4,0.2-29.2,13.6-35.1
	c13.4-5.9,29.2,0.2,35.1,13.6c0,0,0,0,0,0l0.2,0.4c5.8,13.5-0.4,29.2-13.9,35C185.7,136.5,170.1,130.3,164.3,116.8L164.3,116.8z"/>
<path id="b51b91e7-03ed-46d5-9b2a-c48431fd2f0d-76" class="st2" d="M200.4,92.5c5.5,1,14.1,4.5,18.8,0.4c-2.3-2.7-5.3-4.9-8.6-6.3
	c-0.7-0.2-1.3-0.6-1.8-1c-1.6-1.6-0.4-4.5-1.1-6.7c-0.7-1.6-2.2-2.8-3.9-3.2c-1.6-0.5-3.4-0.6-5-1.2c-3.8-1.4-6.6-5.6-10.5-6.7
	c-3.4-1-6.9,0.5-9.8,2.3s-5.9,3.9-9.3,4.3c-2.6,0.2-4.2,4.5-6.8,4.6c-5.4,0.3-5.1-3.3-5.5,2.4c-0.2,3.4-5.1,10.2-5,13.6
	c0.1,2.3-0.3,4.5-0.3,6.7c0.1,4.3,1.9,8.4,4.8,11.5c2.5,2.5,5.7,4.3,7.8,7.2c1.1,1.5,1.8,3.3,3.1,4.7s3.4,2.2,4.8,1.2
	s1.4-3.1,2.1-4.8c0.9-2.1,3-3.3,5.2-3.2c2.3,0.3,4.2,1.9,5,4.1c-0.7-3.6-2.4-7-3.1-10.6s0.2-8,3.3-9.4c1.3-0.6,3.1-0.8,3.7-2.2
	c0.3-0.9,0-1.9,0.2-2.8C189.2,92.9,196.8,91.7,200.4,92.5z"/>
<path class="st1" d="M165.3,283c-0.9-6.1-6.6-10.3-12.7-9.4c-0.7,0.1-1.3,0.2-1.9,0.5l-24.3-31.5l-6.7,19.5l24.1,26.9
	c2.4,5.7,8.9,8.5,14.7,6.1C163.3,293.2,166.1,288.2,165.3,283L165.3,283z"/>
<path class="st3" d="M150.6,156l-8.4-5.9c0,0-19.2-1.1-22,14.6l-35.2,57.8l43.6,60.1l21.1-22.3l-26.7-31.2l22.4-41.1L150.6,156z"/>
<path class="st4" d="M354.9,165.2h-0.4v-12c0-3.9-3.1-7-7-7h-25.5c-3.9,0-7,3.1-7,7v0v66.1c0,3.9,3.1,7,7,7c0,0,0,0,0,0h25.5
	c3.9,0,7-3.1,7-7c0,0,0,0,0,0v-45.5h0.4L354.9,165.2z"/>
<path class="st5" d="M347.7,148h-3.3c0.5,1.3-0.1,2.7-1.4,3.2c-0.3,0.1-0.6,0.2-0.9,0.2h-14.6c-1.4,0-2.5-1.1-2.5-2.5
	c0-0.3,0.1-0.6,0.2-0.9h-3.1c-2.9,0-5.2,2.3-5.2,5.2l0,0v66c0,2.9,2.3,5.2,5.2,5.2l0,0h25.6c2.9,0,5.2-2.3,5.2-5.2l0,0v-66
	C352.9,150.3,350.6,148,347.7,148z"/>
<path class="st6" d="M382,523.4H1c-0.6,0-1-0.4-1-1s0.4-1,1-1h381c0.6,0,1,0.4,1,1S382.6,523.4,382,523.4z"/>
</svg>
