<?xml version="1.0" encoding="utf-8"?>
<!-- Generator: Adobe Illustrator 25.3.0, SVG Export Plug-In . SVG Version: 6.00 Build 0)  -->
<svg version="1.1" id="Capa_1" xmlns="http://www.w3.org/2000/svg" xmlns:xlink="http://www.w3.org/1999/xlink" x="0px" y="0px"
	 viewBox="0 0 960 912.5" style="enable-background:new 0 0 960 912.5;" xml:space="preserve">
<style type="text/css">
	.st0{fill:#9F616A;}
	.st1{fill:#6C63FF;}
	.st2{fill:#2F2E41;}
</style>
<path class="st0" d="M603.83,478.61c1.3-7.22-3.09-14.21-9.8-15.61c-0.72-0.15-1.44-0.23-2.17-0.24l-10.45-28.29l-17.52,2.64
	l15.28,39.73c0.35,7.39,6.2,13.07,13.07,12.69C597.98,489.21,602.77,484.69,603.83,478.61L603.83,478.61z"/>
<path class="st1" d="M571.55,468.67l-5.43-13.94l-33.83-69.32l1.84-128.26l0.35-0.05c21.65-3.08,36.3,104.29,36.91,108.86
	l21.38,78.69l5.09,17.34L571.55,468.67z"/>
<polygon class="st0" points="519.56,739.13 536.01,739.13 543.83,670.84 519.56,670.84 "/>
<path class="st2" d="M515.36,733.35l32.4,0h0c11.4,0,20.64,9.95,20.65,22.22v0.72l-53.04,0L515.36,733.35z"/>
<polygon class="st0" points="368.31,712.16 381.8,722.28 424.5,671.06 404.58,656.12 "/>
<path class="st2" d="M367.93,704.83l26.58,19.93l0,0c9.35,7.02,11.65,20.87,5.13,30.94l-0.38,0.59l-43.52-32.64L367.93,704.83z"/>
<path class="st2" d="M510.52,723.08l-0.71-128.11l-10.35-80.56l-19.3,70.84l-0.04,0.06l-69.93,109.27l-27.21-14.84l0.15-0.38
	c1.66-4.26,40.85-104.24,51.38-104.24c1.87,0.14,3.68-0.72,4.85-2.29c3.09-4.44,0.57-13.87,0.55-13.97
	c-3.02-13.46,4.57-18.04,6.08-18.8l4.06-90.23l0.42,0.03l110.1,8.31l-4.62,112.81L546,718.79l-0.34,0.04L510.52,723.08z"/>
<path class="st1" d="M562.24,478.16l-0.48-0.04l-118.41-10.27l0.29-42.17l5.8-110.1l0.03-0.08l23.6-55.15l16.73-8.15l24.41-1.38
	l0.06,0.02l22.28,5.94l23.17,179.04L562.24,478.16z"/>
<ellipse class="st0" cx="503.09" cy="207.24" rx="31.17" ry="33.55"/>
<path class="st2" d="M471.74,215.67v-13.07c0,0-9.8-12.42,0.98-15.54c0,0,2.94-31.28,28.41-16.68c0,0,35.26-6.26,31.35,15.64
	c0,0,8.82-5.72,5.88,8.88l-5.68,23.51c0,0,2.74-15.53-6.07-17.62l-4.9-3.13c0,0-13.71,14.6-34.28-3.13c0,0-8.82-2.26-7.84,7.12
	C480.55,211.03,471.74,215.67,471.74,215.67z"/>
<path class="st0" d="M499.84,446.67c0.07-7.36-5.41-13.39-12.24-13.47c-0.73-0.01-1.46,0.05-2.18,0.18l-15-25.81l-16.8,5.98
	l21.66,36.13c1.58,7.2,8.28,11.66,14.97,9.96C495.85,458.23,499.82,452.86,499.84,446.67L499.84,446.67z"/>
<path class="st1" d="M461.1,438.54l-27.14-59.3l0.02-0.14c0.11-0.66,11.03-65.94,19.39-89.93c8.41-24.15,19.91-28.99,20.4-29.19
	l0.24-0.1l10.32,10.65l-14.29,102.69l15.41,49.52L461.1,438.54z"/>
</svg>
