<?xml version="1.0" encoding="utf-8"?>
<!-- Generator: Adobe Illustrator 25.3.0, SVG Export Plug-In . SVG Version: 6.00 Build 0)  -->
<svg version="1.1" id="Capa_1" xmlns="http://www.w3.org/2000/svg" xmlns:xlink="http://www.w3.org/1999/xlink" x="0px" y="0px"
	 viewBox="0 0 960 912.5" style="enable-background:new 0 0 960 912.5;" xml:space="preserve">
<style type="text/css">
	.st0{fill:#F1A1A4;}
	.st1{fill:#2F2E43;}
	.st2{fill:#6C63FF;}
</style>
<polygon class="st0" points="521.05,661.81 543.82,648.88 564.46,677.58 541.69,690.52 "/>
<polygon class="st0" points="471.61,263 442.85,271.73 442.4,234.81 468.57,234.55 "/>
<ellipse class="st0" cx="445.76" cy="219.44" rx="28.76" ry="25.56"/>
<path class="st1" d="M453.63,216.83c-4.8-0.08-8.03-4.36-9.95-8.31c-1.92-3.92-3.9-8.45-8.37-10.04c-3.66-1.3-9.98,7.76-12.9,5.4
	c-3.04-2.47-0.27-15.35,2.91-17.67c3.17-2.32,7.53-2.82,11.61-3.04c10.02-0.51,20.09,0.11,29.94,1.84
	c6.08,1.06,12.37,2.7,16.79,6.56c5.61,4.9,7.13,12.35,7.6,19.32c0.5,7.14,0.12,14.62-3.7,20.92c-3.84,6.29-11.94,10.97-19.81,9.46
	c-0.84-3.79-0.09-7.67,0.17-11.54c0.27-3.85-0.12-8-2.8-11.04c-2.68-3.04-8.33-4.2-11.37-1.45"/>
<path class="st1" d="M489.12,225.34c2.85-1.9,6.26-3.5,9.81-3.15c3.84,0.37,7.1,3.15,8.12,6.45c1.02,3.3-0.04,6.96-2.36,9.7
	c-2.32,2.74-5.81,4.55-9.53,5.49c-2.15,0.54-4.5,0.77-6.57,0c-3.04-1.13-4.71-4.54-3.56-7.29"/>
<path id="uuid-31bdf68e-d938-48b7-86ad-7ba8e8b265d3-91-89-41-760" class="st0" d="M382.09,466.85c-1.8,8.41,1.79,16.06,8.06,17.06
	c6.25,1,12.79-5.01,14.61-13.43c0.78-3.35,0.61-6.82-0.5-10.11l22.12-131.84l-29.81-4.67l-9.81,133.73c-2.4,2.74-4.01,5.91-4.67,9.3
	l0,0V466.85L382.09,466.85L382.09,466.85z"/>
<path class="st2" d="M442.32,254.79l-20.31,0.2c-14.33,2.06-18.14,8.92-21.23,21.52c-4.74,19.22-10.79,44.83-9.52,45.18
	c2.03,0.59,36.76,14.7,54.35,11.21l-3.28-78.11L442.32,254.79L442.32,254.79z"/>
<polygon class="st0" points="440.24,674.1 467.26,673.83 467.69,707.9 440.67,708.17 "/>
<path class="st1" d="M414.54,729.06c-2.85,0.04-5.36,0-7.27-0.14c-7.19-0.51-14.08-5.16-17.57-7.87c-1.57-1.22-2.08-3.2-1.3-4.9l0,0
	c0.56-1.22,1.7-2.15,3.13-2.54l18.91-5l30.49-18.72l0.35,0.54c0.13,0.2,3.21,5,4.26,8.26c0.4,1.24,0.32,2.27-0.27,3.07
	c-0.4,0.55-0.96,0.88-1.41,1.09c0.56,0.51,2.31,1.55,7.7,2.25c7.83,1.04,9.41-6.21,9.46-6.51l0.05-0.25l0.23-0.14
	c3.7-2.18,5.97-3.16,6.77-2.96c0.5,0.12,1.31,0.34,3.78,19.97c0.23,0.61,1.84,5.12,0.84,9.46c-1.09,4.72-24.25,3.31-28.87,3
	c-0.13,0.01-17.44,1.29-29.3,1.39h0.04L414.54,729.06L414.54,729.06L414.54,729.06z"/>
<path class="st1" d="M514.31,723.4c-3.17,0.04-6.09-0.28-8.18-0.59c-2.04-0.31-3.66-1.73-4.01-3.55l0,0
	c-0.27-1.31,0.17-2.62,1.14-3.61l13.06-13.14l14.71-30.22l0.62,0.29c0.23,0.11,5.69,2.74,8.53,5c1.08,0.86,1.62,1.77,1.62,2.74
	c0,0.66-0.28,1.2-0.56,1.57c0.78,0.17,2.88,0.21,7.87-1.71c7.26-2.81,4.29-9.7,4.15-9.97l-0.11-0.24l0.12-0.21
	c1.84-3.59,3.2-5.5,3.98-5.71c0.5-0.12,1.31-0.34,15.1,15.16c0.56,0.41,4.62,3.47,6.34,7.62c1.87,4.52-18.58,14.22-22.72,16.11
	c-0.12,0.09-21.5,14.22-30.29,18.26c-3.49,1.6-7.64,2.14-11.43,2.16l0.04,0.04L514.31,723.4L514.31,723.4L514.31,723.4z"/>
<path class="st1" d="M483.54,388.66l-75.65,0.74l-6.08,62.62l32.93,230.85l38.62-0.39l-17.11-133.34l64.16,119.92l34.06-21.71
	L504.14,535.3c0,0,16.26-98.2,2.22-122.48c-14.03-24.28-22.8-24.2-22.8-24.2v0.04L483.54,388.66L483.54,388.66L483.54,388.66z"/>
<polygon class="st2" points="521.21,392.1 401.06,393.29 435.38,254.87 487.74,254.34 "/>
<path id="uuid-0d1d7be6-7e67-43a2-9b15-a4bbed67d7bc-92-90-42-761" class="st0" d="M532.94,465.36c2.02,8.39-1.39,16.09-7.62,17.21
	c-6.24,1.13-12.93-4.75-14.93-13.14c-0.86-3.34-0.78-6.81,0.24-10.12L485.2,327.93l29.68-5.26l13.15,133.52
	c2.47,2.69,4.15,5.84,4.91,9.2l0,0L532.94,465.36L532.94,465.36z"/>
<path class="st2" d="M467.44,254.54l20.31-0.2c14.37,1.79,18.35,8.56,21.78,21.1c5.22,19.12,11.89,44.59,10.64,44.98
	c-2.03,0.61-36.38,15.41-54.04,12.27l1.34-78.16H467.44z"/>
</svg>
